<svg xmlns="http://www.w3.org/2000/svg" width="32" height="32" viewBox="0 0 32 32">
  <g id="ico_school" transform="translate(-615 -1071)">
    <g id="グループ_10" data-name="グループ 10" transform="translate(0 71)">
      <circle id="楕円形_1" data-name="楕円形 1" cx="16" cy="16" r="16" transform="translate(615 1000)" fill="#0fc3be"/>
    </g>
    <g id="グループ_11" data-name="グループ 11" transform="translate(606.021 1030.666)">
      <path id="パス_2" data-name="パス 2" d="M102,287.888a.6.6,0,0,1-.3-.079l-5.251-3a.3.3,0,0,0-.45.26v2.82a.6.6,0,0,0,.309.525l5.4,3a.6.6,0,0,0,.583,0l5.4-3a.6.6,0,0,0,.309-.525v-2.82a.3.3,0,0,0-.45-.26l-5.251,3A.6.6,0,0,1,102,287.888Z" transform="translate(-77.02 -227.889)" fill="#fff"/>
      <path id="パス_3" data-name="パス 3" d="M33.974,53.344v0a.6.6,0,0,0-.3-.46l-8.4-4.8a.6.6,0,0,0-.6,0l-8.4,4.8a.6.6,0,0,0,0,1.042l8.4,4.8a.6.6,0,0,0,.6,0L32.665,54.5a.075.075,0,0,1,.112.065v5.419a.612.612,0,0,0,.571.616.6.6,0,0,0,.628-.57c0-.01,0-.019,0-.029V53.4A.553.553,0,0,0,33.974,53.344Z" transform="translate(0 0)" fill="#fff"/>
    </g>
  </g>
</svg>
