<svg xmlns="http://www.w3.org/2000/svg" width="32" height="32" viewBox="0 0 32 32">
  <g id="ico_company" transform="translate(-615 -1000)">
    <circle id="楕円形_1" data-name="楕円形 1" cx="16" cy="16" r="16" transform="translate(615 1000)" fill="#0fc3be"/>
    <g id="グループ_8" data-name="グループ 8" transform="translate(591 991)">
      <path id="パス_4" data-name="パス 4" d="M46.285,21.714h-4v-4A1.714,1.714,0,0,0,40.571,16H33.714A1.714,1.714,0,0,0,32,17.714V32.57a.571.571,0,0,0,.571.571h3.714a.286.286,0,0,0,.286-.286V30.3a.583.583,0,0,1,.544-.587.571.571,0,0,1,.6.543c0,.009,0,.018,0,.027v2.571a.286.286,0,0,0,.286.286h9.428A.571.571,0,0,0,48,32.57V23.428A1.714,1.714,0,0,0,46.285,21.714ZM34.36,30.851a.571.571,0,1,1,.492-.492A.571.571,0,0,1,34.36,30.851Zm0-2.857a.571.571,0,1,1,.492-.492A.571.571,0,0,1,34.36,27.994Zm0-2.857a.571.571,0,1,1,.492-.492A.571.571,0,0,1,34.36,25.138Zm0-2.857a.571.571,0,1,1,.492-.492A.571.571,0,0,1,34.36,22.281Zm0-2.857a.571.571,0,1,1,.492-.492A.571.571,0,0,1,34.36,19.424Zm2.857,8.571a.571.571,0,1,1,.492-.492A.571.571,0,0,1,37.217,27.994Zm0-2.857a.571.571,0,1,1,.492-.492A.571.571,0,0,1,37.217,25.138Zm0-2.857a.571.571,0,1,1,.492-.492A.571.571,0,0,1,37.217,22.281Zm0-2.857a.571.571,0,1,1,.492-.492A.571.571,0,0,1,37.217,19.424Zm2.857,11.428a.571.571,0,1,1,.492-.492.571.571,0,0,1-.492.492Zm0-2.857a.571.571,0,1,1,.492-.492.571.571,0,0,1-.492.492Zm0-2.857a.571.571,0,1,1,.492-.492.571.571,0,0,1-.492.492Zm0-2.857a.571.571,0,1,1,.492-.492.571.571,0,0,1-.492.492Zm0-2.857a.571.571,0,1,1,.492-.492.571.571,0,0,1-.492.492ZM46.713,32H42.285V22.857h4a.571.571,0,0,1,.571.571v8.428A.143.143,0,0,1,46.713,32Z" transform="translate(0 0)" fill="#fff"/>
      <path id="パス_5" data-name="パス 5" d="M384.571,400a.571.571,0,1,0,.571.571A.571.571,0,0,0,384.571,400Z" transform="translate(-339.43 -370.287)" fill="#fff"/>
      <path id="パス_6" data-name="パス 6" d="M384.571,320a.571.571,0,1,0,.571.571A.571.571,0,0,0,384.571,320Z" transform="translate(-339.43 -293.144)" fill="#fff"/>
      <path id="パス_7" data-name="パス 7" d="M384.571,240a.571.571,0,1,0,.571.571A.571.571,0,0,0,384.571,240Z" transform="translate(-339.43 -216.001)" fill="#fff"/>
      <path id="パス_8" data-name="パス 8" d="M320.571,400a.571.571,0,1,0,.571.571A.571.571,0,0,0,320.571,400Z" transform="translate(-277.715 -370.287)" fill="#fff"/>
      <path id="パス_9" data-name="パス 9" d="M320.571,320a.571.571,0,1,0,.571.571A.571.571,0,0,0,320.571,320Z" transform="translate(-277.715 -293.144)" fill="#fff"/>
      <path id="パス_10" data-name="パス 10" d="M320.571,240a.571.571,0,1,0,.571.571A.571.571,0,0,0,320.571,240Z" transform="translate(-277.715 -216.001)" fill="#fff"/>
    </g>
  </g>
</svg>
